<svg width="156" height="15" viewBox="0 0 156 15" fill="none" xmlns="http://www.w3.org/2000/svg">
<path d="M10.746 14.252C18.09 14.252 19.512 11.966 19.512 9.644V9.392C19.512 6.656 17.604 5.45 12.438 5.306L9.882 5.252C7.614 5.198 7.146 4.856 7.146 4.334V4.316C7.146 3.83 7.434 3.47 9.522 3.47H9.612C11.88 3.47 12.132 4.226 12.186 4.712H19.026V4.586C19.026 2.372 17.424 0.373999 10.476 0.373999H8.496C2.142 0.373999 0.36 2.084 0.36 4.442V4.604C0.36 6.71 1.602 8.618 6.984 8.762L9.648 8.834C12.186 8.924 12.438 9.356 12.438 9.914V9.95C12.438 10.508 12.006 11.03 9.846 11.03H9.774C7.416 11.03 7.146 10.022 7.092 9.392H0.144V9.554C0.144 11.282 0.918 14.252 8.712 14.252H10.746ZM20.4071 0.608V14H26.4551V6.674L34.1051 14H40.2431V0.608H34.1951V7.376L27.2291 0.608H20.4071ZM41.6415 0.608V14H57.2835V10.418H47.6175V8.96H57.0495V5.468H47.6175V4.154H57.1935V0.608H41.6415ZM69.9816 8.456H66.2016L68.0736 4.334L69.9816 8.456ZM72.5376 14H79.2696L72.4116 0.608H64.0236L57.5796 14H63.7176L64.5456 12.146H71.6916L72.5376 14ZM85.7465 14V8.348L91.7045 14H99.6245L91.6145 6.656L99.4985 0.608H92.0465L85.7465 5.594V0.608H79.6805V14H85.7465ZM100.018 0.608V14H115.66V10.418H105.994V8.96H115.426V5.468H105.994V4.154H115.57V0.608H100.018ZM122.924 4.082H128.306C129.314 4.082 129.674 4.496 129.674 5.054V5.072C129.674 5.63 129.314 6.044 128.306 6.044H122.924V4.082ZM122.924 9.572H127.226C129.188 9.572 129.872 10.418 129.872 11.858V13.46C129.872 13.73 129.908 13.91 129.998 14H136.226V13.892C136.082 13.658 135.974 13.334 135.974 12.542V10.526C135.974 8.798 134.894 7.628 133.004 7.25C134.12 6.962 135.92 6.206 135.92 4.19V4.01C135.92 1.562 133.85 0.608 130.484 0.608H116.858V14H122.924V9.572ZM147.17 14.252C154.514 14.252 155.936 11.966 155.936 9.644V9.392C155.936 6.656 154.028 5.45 148.862 5.306L146.306 5.252C144.038 5.198 143.57 4.856 143.57 4.334V4.316C143.57 3.83 143.858 3.47 145.946 3.47H146.036C148.304 3.47 148.556 4.226 148.61 4.712H155.45V4.586C155.45 2.372 153.848 0.373999 146.9 0.373999H144.92C138.566 0.373999 136.784 2.084 136.784 4.442V4.604C136.784 6.71 138.026 8.618 143.408 8.762L146.072 8.834C148.61 8.924 148.862 9.356 148.862 9.914V9.95C148.862 10.508 148.43 11.03 146.27 11.03H146.198C143.84 11.03 143.57 10.022 143.516 9.392H136.568V9.554C136.568 11.282 137.342 14.252 145.136 14.252H147.17Z" fill="#1B1D1E"/>
</svg>
